<?xml version="1.0" encoding="utf-8"?>
<!-- Generator: Adobe Illustrator 24.2.0, SVG Export Plug-In . SVG Version: 6.00 Build 0)  -->
<svg version="1.1" xmlns="http://www.w3.org/2000/svg" xmlns:xlink="http://www.w3.org/1999/xlink" x="0px" y="0px"
	 viewBox="0 0 333.9 191.4" style="enable-background:new 0 0 333.9 191.4;" xml:space="preserve">
<style type="text/css">
	.st0{fill:#C2CF00;}
</style>
<g id="Calque_1">
	<g>
		<g>
			<g>
				<path class="st0" d="M12,109.5c5.3-5.3,11.7-8,19.2-8c7.5,0,13.9,2.7,19.2,8c5.3,5.3,8,11.7,8,19.2c0,7.5-2.7,13.9-8,19.2
					s-11.7,8-19.2,8c-7.5,0-13.9-2.7-19.2-8c-5.3-5.3-8-11.7-8-19.2C4,121.2,6.6,114.8,12,109.5z M15.5,144.3
					c4.3,4.3,9.5,6.4,15.7,6.4s11.4-2.1,15.7-6.4s6.4-9.5,6.4-15.7c0-6.2-2.1-11.4-6.4-15.7c-4.3-4.3-9.5-6.4-15.7-6.4
					s-11.4,2.1-15.7,6.4c-4.3,4.3-6.4,9.5-6.4,15.7C9,134.8,11.2,140.1,15.5,144.3z"/>
				<path class="st0" d="M103.1,155.2h-6l-14.3-18.9H71.5v18.9h-5v-53h15.1c6.7,0,11.8,1.5,15.2,4.4c3.4,2.9,5,7,5,12.2
					c0,4.4-1.2,8.1-3.6,11.2c-2.4,3.1-5.7,5-9.9,5.8L103.1,155.2z M71.5,107.2v24h12.6c3.7,0,6.8-1,9.1-2.9c2.3-1.9,3.5-4.9,3.5-9
					c0-4.1-1.2-7.1-3.7-9.1c-2.5-2-5.6-3-9.3-3H71.5z"/>
				<path class="st0" d="M159.9,127.4v1.3c0,7.6-2.5,14-7.4,19.3c-4.9,5.3-11.1,7.9-18.5,7.9c-7.5,0-13.9-2.7-19.2-8
					c-5.3-5.3-8-11.7-8-19.2c0-7.5,2.7-13.9,8-19.2c5.3-5.3,11.7-8,19.2-8c5.2,0,9.8,1.3,13.9,4c4,2.7,7.2,6.3,9.5,10.8
					c0,0-9.3-4.7-12.5-6.7c-3.2-2-6.8-3-10.9-3c-6.1,0-11.3,2.2-15.6,6.5c-4.3,4.3-6.5,9.5-6.5,15.6c0,6.1,2.2,11.3,6.5,15.6
					c4.3,4.3,9.5,6.5,15.6,6.5c5.4,0,9.9-1.7,13.7-5.2c3.8-3.4,6-7.8,6.8-13.1l-22.4-5H159.9z"/>
				<path class="st0" d="M206,155.2l-5.2-11.4H172l-5.2,11.4h-5.7l25.2-54.3l25.2,54.3H206z M174.4,138.8h24.1l-12.1-26.4
					L174.4,138.8z"/>
				<path class="st0" d="M259.6,156.4L223,114.2v41h-5V101l36.6,42.2v-41h5V156.4z"/>
				<path class="st0" d="M276.1,155.2h-5v-53h5V155.2z"/>
				<path class="st0" d="M311.4,150.8c5.9,0,17-1.2,17-1.2c-2.1,1.9-4.7,3.5-7.7,4.6c-3.1,1.1-6,1.7-9,1.7c-7.6,0-14-2.7-19.4-8
					c-5.4-5.3-8-11.7-8-19.2c0-7.5,2.7-13.9,8-19.2c5.4-5.3,11.8-8,19.4-8c2.9,0,5.9,0.6,9,1.7c3,1.1,5.6,2.6,7.7,4.6
					c0,0-11.2-1.2-17-1.2c-6.1,0-11.3,2.2-15.6,6.5c-4.3,4.3-6.5,9.5-6.5,15.6c0,6.1,2.2,11.3,6.5,15.6
					C300.1,148.6,305.3,150.8,311.4,150.8z"/>
			</g>
			<g>
				<path class="st0" d="M74,185.3l-6.4-14.4h1.5l4.9,11.3l4.9-11.3h1.5L74,185.3z"/>
				<path class="st0" d="M104.4,184.9H103v-14.1h1.3V184.9z"/>
				<path class="st0" d="M129.7,183.6h6v1.3h-7.4v-14.1L129.7,183.6z"/>
				<path class="st0" d="M160.3,183.6h6v1.3H159v-14.1L160.3,183.6z"/>
				<path class="st0" d="M200.9,184.9l-1.4-3h-7.6l-1.4,3H189l6.7-14.4l6.7,14.4H200.9z M192.5,180.6h6.4l-3.2-7L192.5,180.6z"/>
				<path class="st0" d="M237.7,177.5v0.3c0,2-0.7,3.7-2,5.1c-1.3,1.4-2.9,2.1-4.9,2.1c-2,0-3.7-0.7-5.1-2.1
					c-1.4-1.4-2.1-3.1-2.1-5.1c0-2,0.7-3.7,2.1-5.1c1.4-1.4,3.1-2.1,5.1-2.1c1.4,0,2.6,0.4,3.7,1.1c1.1,0.7,1.9,1.7,2.5,2.9
					c0,0-2.5-1.3-3.3-1.8c-0.9-0.5-1.8-0.8-2.9-0.8c-1.6,0-3,0.6-4.1,1.7c-1.1,1.1-1.7,2.5-1.7,4.1s0.6,3,1.7,4.1
					c1.1,1.1,2.5,1.7,4.1,1.7c1.4,0,2.6-0.5,3.6-1.4c1-0.9,1.6-2.1,1.8-3.5l-5.9-1.3H237.7z"/>
				<path class="st0" d="M268.6,172.2h-6.4v5h5.4v1.3h-5.4v5h6.4v1.3h-7.7v-14.1h7.7V172.2z"/>
			</g>
		</g>
		<g>
			<g>
				<path class="st0" d="M168.2,87.7c-21.8,0-39.6-17.8-39.6-39.6s17.8-39.6,39.6-39.6s39.6,17.8,39.6,39.6S190,87.7,168.2,87.7z
					 M168.2,12C148.2,12,132,28.2,132,48.1s16.2,36.2,36.2,36.2s36.2-16.2,36.2-36.2S188.1,12,168.2,12z"/>
			</g>
			<g>
				<path class="st0" d="M162.7,82c-21.8,0-39.6-17.8-39.6-39.6s17.8-39.6,39.6-39.6c21.8,0,39.6,17.8,39.6,39.6S184.6,82,162.7,82z
					 M162.7,6.2c-19.9,0-36.2,16.2-36.2,36.2c0,19.9,16.2,36.2,36.2,36.2c19.9,0,36.2-16.2,36.2-36.2
					C198.9,22.4,182.7,6.2,162.7,6.2z"/>
			</g>
			<g>
				<path class="st0" d="M204.4,89c-8.9,0-19.6-13.2-29.2-25.1c-5.3-6.5-10.3-12.7-13.3-14.2c-6-3.2-24.3,21.5-30.2,31.5l0,0
					c-0.7,1.1-1.8,1-2.4,0.7l-0.6-2.3c0.2-0.4,23.7-38.7,34.8-32.9c3.6,1.9,8.6,8,14.3,15.1c9.5,11.7,22.4,27.7,29.4,22.9l2,2.9
					C207.8,88.5,206.1,89,204.4,89z"/>
			</g>
		</g>
	</g>
</g>
<g id="Calque_2">
</g>
</svg>
