<?xml version="1.0" encoding="utf-8"?>
<!-- Generator: Adobe Illustrator 24.2.0, SVG Export Plug-In . SVG Version: 6.00 Build 0)  -->
<svg version="1.1" id="Calque_1" xmlns="http://www.w3.org/2000/svg" xmlns:xlink="http://www.w3.org/1999/xlink" x="0px" y="0px"
	 viewBox="0 0 333.9 333.9" style="enable-background:new 0 0 333.9 333.9;" xml:space="preserve">
<style type="text/css">
	.st0{fill:#FFFFFF;}
</style>
<circle cx="166.9" cy="167" r="160.5"/>
<g id="Calque_1_1_">
	<g>
		<g>
			<g>
				<path class="st0" d="M30.2,175.1c4.7-4.7,10.4-7.1,17.1-7.1s12.4,2.4,17.1,7.1c4.7,4.7,7.1,10.4,7.1,17.1
					c0,6.7-2.4,12.4-7.1,17.1s-10.4,7.1-17.1,7.1S35,214,30.2,209.2s-7.1-10.4-7.1-17.1C23.1,185.5,25.4,179.8,30.2,175.1z
					 M33.4,206c3.8,3.8,8.5,5.7,14,5.7s10.1-1.9,14-5.7s5.7-8.5,5.7-14s-1.9-10.1-5.7-14c-3.8-3.8-8.5-5.7-14-5.7s-10.1,1.9-14,5.7
					s-5.7,8.5-5.7,14C27.6,197.6,29.5,202.3,33.4,206z"/>
				<path class="st0" d="M111.3,215.7H106l-12.7-16.8H83.2v16.8h-4.5v-47.2h13.4c6,0,10.5,1.3,13.5,3.9c3,2.6,4.5,6.2,4.5,10.9
					c0,3.9-1.1,7.2-3.2,10s-5.1,4.5-8.8,5.2L111.3,215.7z M83.2,173v21.4h11.2c3.3,0,6.1-0.9,8.1-2.6c2-1.7,3.1-4.4,3.1-8
					s-1.1-6.3-3.3-8.1c-2.2-1.8-5-2.7-8.3-2.7C94.1,173,83.2,173,83.2,173z"/>
				<path class="st0" d="M161.9,191v1.2c0,6.8-2.2,12.5-6.6,17.2c-4.4,4.7-9.9,7-16.5,7c-6.7,0-12.4-2.4-17.1-7.1
					c-4.7-4.7-7.1-10.4-7.1-17.1c0-6.7,2.4-12.4,7.1-17.1c4.7-4.7,10.4-7.1,17.1-7.1c4.6,0,8.7,1.2,12.4,3.6
					c3.6,2.4,6.4,5.6,8.5,9.6c0,0-8.3-4.2-11.1-6s-6.1-2.7-9.7-2.7c-5.4,0-10.1,2-13.9,5.8c-3.8,3.8-5.8,8.5-5.8,13.9
					s2,10.1,5.8,13.9c3.8,3.8,8.5,5.8,13.9,5.8c4.8,0,8.8-1.5,12.2-4.6c3.4-3,5.3-6.9,6.1-11.7l-19.9-4.5L161.9,191L161.9,191z"/>
				<path class="st0" d="M202.9,215.7l-4.6-10.1h-25.6l-4.6,10.1H163l22.4-48.3l22.4,48.3H202.9z M174.8,201.1h21.5l-10.8-23.5
					L174.8,201.1z"/>
				<path class="st0" d="M250.6,216.8L218,179.2v36.5h-4.5v-48.2l32.6,37.6v-36.5h4.5V216.8z"/>
				<path class="st0" d="M265.3,215.7h-4.5v-47.2h4.5V215.7z"/>
				<path class="st0" d="M296.7,211.8c5.3,0,15.1-1.1,15.1-1.1c-1.9,1.7-4.2,3.1-6.9,4.1c-2.8,1-5.3,1.5-8,1.5
					c-6.8,0-12.5-2.4-17.3-7.1c-4.8-4.7-7.1-10.4-7.1-17.1s2.4-12.4,7.1-17.1c4.8-4.7,10.5-7.1,17.3-7.1c2.6,0,5.3,0.5,8,1.5
					s5,2.3,6.9,4.1c0,0-10-1.1-15.1-1.1c-5.4,0-10.1,2-13.9,5.8s-5.8,8.5-5.8,13.9s2,10.1,5.8,13.9
					C286.7,209.9,291.3,211.8,296.7,211.8z"/>
			</g>
			<g>
				<path class="st0" d="M85.4,242.5l-5.7-12.8H81l4.4,10.1l4.4-10.1h1.3L85.4,242.5z"/>
				<path class="st0" d="M112.5,242.2h-1.2v-12.6h1.2V242.2L112.5,242.2z"/>
				<path class="st0" d="M135,241h5.3v1.2h-6.6v-12.6L135,241z"/>
				<path class="st0" d="M162.2,241h5.3v1.2H161v-12.6L162.2,241z"/>
				<path class="st0" d="M198.4,242.2l-1.2-2.7h-6.8l-1.2,2.7h-1.3l6-12.8l6,12.8H198.4z M190.9,238.4h5.7l-2.8-6.2L190.9,238.4z"/>
				<path class="st0" d="M231.1,235.6v0.3c0,1.8-0.6,3.3-1.8,4.5s-2.6,1.9-4.4,1.9s-3.3-0.6-4.5-1.9s-1.9-2.8-1.9-4.5
					s0.6-3.3,1.9-4.5c1.2-1.2,2.8-1.9,4.5-1.9c1.2,0,2.3,0.4,3.3,1s1.7,1.5,2.2,2.6c0,0-2.2-1.2-2.9-1.6c-0.8-0.4-1.6-0.7-2.6-0.7
					c-1.4,0-2.7,0.5-3.6,1.5c-1,1-1.5,2.2-1.5,3.6s0.5,2.7,1.5,3.6c1,1,2.2,1.5,3.6,1.5c1.2,0,2.3-0.4,3.2-1.2s1.4-1.9,1.6-3.1
					l-5.3-1.2L231.1,235.6L231.1,235.6z"/>
				<path class="st0" d="M258.6,230.9h-5.7v4.5h4.8v1.2h-4.8v4.5h5.7v1.2h-6.9v-12.6h6.9V230.9z"/>
			</g>
		</g>
		<g>
			<g>
				<path class="st0" d="M169.3,155.7c-19.4,0-35.2-15.8-35.2-35.2s15.8-35.2,35.2-35.2s35.2,15.8,35.2,35.2
					S188.7,155.7,169.3,155.7z M169.3,88.3c-17.8,0-32.2,14.4-32.2,32.1s14.4,32.2,32.2,32.2s32.2-14.4,32.2-32.2
					S187,88.3,169.3,88.3z"/>
			</g>
			<g>
				<path class="st0" d="M164.4,150.6c-19.4,0-35.2-15.8-35.2-35.2s15.8-35.2,35.2-35.2s35.2,15.8,35.2,35.2
					S183.9,150.6,164.4,150.6z M164.4,83.1c-17.7,0-32.2,14.4-32.2,32.2c0,17.7,14.4,32.2,32.2,32.2c17.7,0,32.2-14.4,32.2-32.2
					S182.2,83.1,164.4,83.1z"/>
			</g>
			<g>
				<path class="st0" d="M201.5,156.8c-7.9,0-17.4-11.7-26-22.3c-4.7-5.8-9.2-11.3-11.8-12.6c-5.3-2.8-21.6,19.1-26.9,28l0,0
					c-0.6,1-1.6,0.9-2.1,0.6l-0.5-2c0.2-0.4,21.1-34.4,31-29.3c3.2,1.7,7.7,7.1,12.7,13.4c8.5,10.4,19.9,24.7,26.2,20.4l1.8,2.6
					C204.5,156.4,203,156.8,201.5,156.8z"/>
			</g>
		</g>
	</g>
</g>
</svg>
