<?xml version="1.0" encoding="utf-8"?>
<!-- Generator: Adobe Illustrator 25.4.0, SVG Export Plug-In . SVG Version: 6.00 Build 0)  -->
<svg version="1.1" id="Calque_1" xmlns="http://www.w3.org/2000/svg" xmlns:xlink="http://www.w3.org/1999/xlink" x="0px" y="0px"
	 viewBox="0 0 333.9 191.4" style="enable-background:new 0 0 333.9 191.4;" xml:space="preserve">
<style type="text/css">
	.st0{fill:#C8CD00;}
</style>
<g id="Calque_2_00000138547429168317175830000009960545329071399318_">
</g>
<g>
	<path class="st0" d="M29,102.8c-7.6,0-14.2,2.7-19.6,8.1c-5.4,5.4-8.1,12-8.1,19.6c0,7.6,2.7,14.2,8.1,19.6
		c5.4,5.4,12,8.1,19.6,8.1c7.6,0,14.2-2.7,19.6-8.1c5.4-5.4,8.1-12,8.1-19.6c0-7.6-2.7-14.2-8.1-19.6
		C43.1,105.5,36.6,102.8,29,102.8z M45,146.5c-4.4,4.4-9.7,6.6-16,6.6c-6.3,0-11.6-2.2-16-6.6c-4.4-4.4-6.6-9.7-6.6-16
		c0-6.3,2.2-11.6,6.6-16c4.4-4.4,9.7-6.6,16-6.6c6.3,0,11.6,2.2,16,6.6c4.4,4.4,6.6,9.7,6.6,16C51.5,136.8,49.3,142.1,45,146.5z"/>
	<path class="st0" d="M87.5,137.8c4.3-0.8,7.7-2.8,10.1-6c2.4-3.2,3.6-7,3.6-11.4c0-5.3-1.7-9.5-5.2-12.5c-3.4-3-8.6-4.5-15.5-4.5
		H65.1v54.2h5.2v-19.3h11.5l14.6,19.3h6.1L87.5,137.8z M70.2,133.1v-24.5h12.5c3.8,0,7,1,9.5,3c2.5,2,3.8,5.1,3.8,9.3
		s-1.2,7.3-3.6,9.2c-2.4,2-5.5,2.9-9.3,2.9H70.2z"/>
	<path class="st0" d="M160.5,129.2h-28.4l22.9,5.2c-0.8,5.4-3.1,9.9-7,13.4c-3.8,3.5-8.5,5.3-14,5.3c-6.2,0-11.6-2.2-16-6.6
		c-4.4-4.4-6.6-9.7-6.6-16c0-6.2,2.2-11.6,6.6-16c4.4-4.4,9.7-6.6,16-6.6c4.1,0,7.8,1,11.1,3.1c3.3,2.1,12.8,6.9,12.8,6.9
		c-2.4-4.7-5.6-8.4-9.8-11.1c-4.1-2.7-8.9-4.1-14.2-4.1c-7.6,0-14.2,2.7-19.6,8.1c-5.4,5.4-8.1,12-8.1,19.6c0,7.6,2.7,14.2,8.1,19.6
		c5.4,5.4,12,8.1,19.6,8.1c7.6,0,13.9-2.7,18.9-8.1c5-5.4,7.5-11.9,7.5-19.7V129.2z"/>
	<path class="st0" d="M161.8,157.6h5.8l5.3-11.6h29.4l5.3,11.6h5.8l-25.8-55.5L161.8,157.6z M175.3,140.8l12.3-27l12.3,27H175.3z"/>
	<polygon class="st0" points="257.2,145.3 219.8,102.2 219.8,157.6 225,157.6 225,115.7 262.4,158.8 262.4,103.4 257.2,103.4 	"/>
	<rect x="274" y="103.4" class="st0" width="5.2" height="54.2"/>
	<path class="st0" d="M299.3,146.5c-4.4-4.4-6.6-9.7-6.6-16c0-6.2,2.2-11.6,6.6-16c4.4-4.4,9.7-6.6,16-6.6c6,0,17.4,1.2,17.4,1.2
		c-2.1-2-4.8-3.5-7.9-4.7c-3.1-1.1-6.2-1.7-9.2-1.7c-7.7,0-14.3,2.7-19.8,8.1c-5.5,5.4-8.2,12-8.2,19.6c0,7.6,2.7,14.2,8.2,19.6
		c5.5,5.4,12.1,8.1,19.8,8.1c3,0,6.1-0.6,9.2-1.7c3.1-1.1,5.7-2.7,7.9-4.7c0,0-11.4,1.2-17.4,1.2C309,153.1,303.7,150.9,299.3,146.5
		z"/>
	<polygon class="st0" points="72.8,183.8 68.2,173.1 65.5,173.1 72.8,189.6 73.3,188.5 80.1,173.1 77.4,173.1 	"/>
	<polygon class="st0" points="101.9,188.5 104.3,188.5 104.3,188 104.3,173.1 101.9,173.1 	"/>
	<polygon class="st0" points="128.8,173.5 127.7,173.6 127.7,188.5 136.3,188.5 136.3,186.1 130.1,186.1 	"/>
	<polygon class="st0" points="160.1,173.5 159.1,173.6 159.1,188.5 167.6,188.5 167.6,186.1 161.4,186.1 	"/>
	<path class="st0" d="M189.4,188.5h2.7l1.4-3.1h7.1l1.4,3.1h0.3h2.3L197,172L189.4,188.5z M194.6,183l2.5-5.4l2.5,5.4H194.6z"/>
	<path class="st0" d="M227.9,179.9l10.1,2.3c-0.3,1.1-0.8,2-1.6,2.8c-0.9,0.8-2,1.3-3.4,1.3c-1.5,0-2.8-0.5-3.9-1.6
		c-1.1-1.1-1.6-2.3-1.6-3.9c0-1.5,0.5-2.8,1.6-3.9c1.1-1.1,2.3-1.6,3.9-1.6c1,0,1.9,0.2,2.7,0.7c0.5,0.3,1.3,0.7,2.1,1.1
		c0.7,0.4,1.4,0.7,1.4,0.7l1.4,0.7l-0.7-1.4c-0.7-1.3-1.6-2.4-2.8-3.1c-1.2-0.8-2.5-1.2-4-1.2c-2.1,0-4,0.8-5.6,2.3
		c-1.5,1.5-2.3,3.4-2.3,5.6c0,2.1,0.8,4,2.3,5.6c1.5,1.5,3.4,2.3,5.6,2.3c2.1,0,4-0.8,5.4-2.3c1.4-1.5,2.1-3.4,2.1-5.6v-0.3v-0.5
		H240H227.9z"/>
	<polygon class="st0" points="263.1,188.5 272,188.5 272,186.1 265.5,186.1 265.5,182 271,182 271,179.6 265.5,179.6 265.5,175.5 
		272,175.5 272,174.9 272,173.1 263.1,173.1 	"/>
	<path class="st0" d="M134.8,70.9c-3.7,5.2-6.1,9.2-6.2,9.3l0.6,2.4c0.6,0.4,1.7,0.5,2.5-0.7l0,0c1.3-2.3,3.3-5.3,5.6-8.5
		c7.4,9.3,18.8,15.2,31.6,15.2c8.3,0,16.1-2.5,22.5-6.9c5,4.8,10,8.1,14.5,8.1c1.7,0,3.4-0.5,5-1.6l-2-2.9c-3.7,2.5-9-0.6-14.6-5.8
		c9.2-7.4,15-18.8,15-31.4c0-12.2-5.4-23.1-14-30.5c-7.4-9.6-19-15.8-32.1-15.8c-22.3,0-40.5,18.2-40.5,40.5
		C122.9,53.5,127.5,63.6,134.8,70.9z M192.9,20.1c4.7,6.2,7.4,13.9,7.4,22.2c0,11.7-5.4,22.1-13.9,28.9c-2.6-3-5.2-6.2-7.5-9.1
		c-5.9-7.3-11-13.5-14.7-15.5c-7-3.7-18.8,9.8-26.8,20.7c-3.4-5.6-5.4-12.1-5.4-19.1c0-20.4,16.6-36.9,36.9-36.9
		C178.1,11.3,186.4,14.6,192.9,20.1z M139.5,70.4c8-10.9,18.7-23,23.1-20.7c3,1.6,8.1,7.9,13.5,14.5c2.4,3,4.9,6,7.4,8.9
		c-5.8,3.8-12.7,6-20.1,6C154.3,79.2,146,75.9,139.5,70.4z M152.6,81.3c3.4,0.9,7,1.5,10.8,1.5c8.3,0,16-2.5,22.5-6.8
		c1,1.1,2,2.2,3,3.3c-5.8,3.7-12.6,5.9-20,5.9C163.1,85.1,157.6,83.8,152.6,81.3z M205.9,48.2c0,11.7-5.5,22.2-14,28.9
		c-1-1.1-2.1-2.2-3.1-3.3c9.2-7.4,15.1-18.8,15.1-31.5c0-2.9-0.3-5.8-0.9-8.5C204.8,38.2,205.9,43.1,205.9,48.2z M163.4,5.4
		c5.9,0,11.4,1.4,16.3,3.8c-3.4-0.9-7-1.5-10.8-1.5c-22.3,0-40.5,18.2-40.5,40.5c0,2.9,0.3,5.8,0.9,8.5c-1.9-4.4-2.9-9.3-2.9-14.4
		C126.5,21.9,143,5.4,163.4,5.4z"/>
</g>
</svg>
