<?xml version="1.0" encoding="utf-8"?>
<!-- Generator: Adobe Illustrator 25.4.0, SVG Export Plug-In . SVG Version: 6.00 Build 0)  -->
<svg version="1.1" id="c9533a1a-3341-4132-b58a-1916f0ec6876"
	 xmlns="http://www.w3.org/2000/svg" xmlns:xlink="http://www.w3.org/1999/xlink" x="0px" y="0px" viewBox="0 0 1074 739"
	 style="enable-background:new 0 0 1074 739;" xml:space="preserve">
<style type="text/css">
	.st0{opacity:0.1;fill:#009DFF;enable-background:new    ;}
	.st1{fill:url(#SVGID_1_);}
	.st2{fill:#009DFF;}
	.st3{opacity:0.2;fill:#FFFFFF;enable-background:new    ;}
	.st4{opacity:7.000000e-02;fill:#FFFFFF;enable-background:new    ;}
	.st5{fill:#535461;}
	.st6{fill:#774E55;}
	.st7{opacity:0.2;enable-background:new    ;}
	.st8{fill:#5C3D53;}
	.st9{opacity:5.000000e-02;enable-background:new    ;}
	.st10{fill:#F8BDC5;}
	.st11{opacity:0.1;enable-background:new    ;}
	.st12{fill:#5E52AD;}
	.st13{opacity:0.1;}
	.st14{fill:#C2CF00;}
	.st15{fill:none;stroke:#535461;stroke-width:2;stroke-miterlimit:10;}
</style>
<path class="st0" d="M335.2,77h69.7c2.9,0,5.2,2.3,5.2,5.2v19.7c0,2.9-2.3,5.2-5.2,5.2h-69.7c-2.9,0-5.2-2.3-5.2-5.2V82.2
	C330,79.3,332.3,77,335.2,77z"/>
<path class="st0" d="M573.2,50h69.7c2.9,0,5.2,2.3,5.2,5.2v19.7c0,2.9-2.3,5.2-5.2,5.2h-69.7c-2.9,0-5.2-2.3-5.2-5.2V55.2
	C568,52.3,570.3,50,573.2,50z"/>
<path class="st0" d="M529.2,355h69.7c2.9,0,5.2,2.3,5.2,5.2v19.7c0,2.9-2.3,5.2-5.2,5.2h-69.7c-2.9,0-5.2-2.3-5.2-5.2v-19.7
	C524,357.3,526.3,355,529.2,355z"/>
<path class="st0" d="M565.2,388h69.7c2.9,0,5.2,2.3,5.2,5.2v19.7c0,2.9-2.3,5.2-5.2,5.2h-69.7c-2.9,0-5.2-2.3-5.2-5.2v-19.7
	C560,390.3,562.3,388,565.2,388z"/>
<path class="st0" d="M779.2,373h69.7c2.9,0,5.2,2.3,5.2,5.2v19.7c0,2.9-2.3,5.2-5.2,5.2h-69.7c-2.9,0-5.2-2.3-5.2-5.2v-19.7
	C774,375.3,776.3,373,779.2,373z"/>
<path class="st0" d="M128.2,397h69.7c2.9,0,5.2,2.3,5.2,5.2v19.7c0,2.9-2.3,5.2-5.2,5.2h-69.7c-2.9,0-5.2-2.3-5.2-5.2v-19.7
	C123,399.3,125.3,397,128.2,397z"/>
<path class="st0" d="M504.2,421h69.7c2.9,0,5.2,2.3,5.2,5.2v19.7c0,2.9-2.3,5.2-5.2,5.2h-69.7c-2.9,0-5.2-2.3-5.2-5.2v-19.7
	C499,423.3,501.3,421,504.2,421z"/>
<linearGradient id="SVGID_1_" gradientUnits="userSpaceOnUse" x1="607.35" y1="-49.7638" x2="607.35" y2="659.4691" gradientTransform="matrix(1 0 0 -1 -63 659.39)">
	<stop  offset="0" style="stop-color:#808080;stop-opacity:0.25"/>
	<stop  offset="0.54" style="stop-color:#808080;stop-opacity:0.12"/>
	<stop  offset="1" style="stop-color:#808080;stop-opacity:0.1"/>
</linearGradient>
<path class="st1" d="M718.9,182.2L682.2,75.8l-13.2,2l-11.8,1.5c0.3-4,0.8-18.4-6.5-25.9c-0.7-2.6-2.6-5.5-6.2-8.8
	c-17.5-16.1-21.2,16.8-21.2,16.8s-4,6.9-9.5,16.6l-2.9-0.5l-0.8,7.2c-12.2,21.6-28.4,50.8-28.4,53.5c0,4.4-2.2,10.2-2.2,10.2
	s-12.4,20.5-16.8,30.7c-2.6,6-6.3,11.5-11,16.1c0,0-1.1,0.8-2.8,2c0.1-1.9,0.4-3.9,1-5.7c1.6-5.2,5.3-9.7,6.3-15.1
	c0.2-1.3,0.3-2.6,0.3-3.9c0.2-6.3-2.8-12.5-4.1-18.8c-1.5-7.3-0.7-15.4-4.6-21.7c-3-4.9-8.3-7.9-13.8-9.3
	c-5.1-1.3-10.1-0.8-15.2-1.4c-4.7-0.5-9.2-2.6-13.9-3.4c-2.5-0.5-5.1-0.5-7.6,0c-8,2.2-10.4,12.2-16.6,17.7c-2.2,2-4.9,3.4-6.9,5.6
	c-2.9,3.2-3.9,7.6-3.8,12c0,1.5,0,2.9,0.3,4.4c0.8,5.2,2.8,10.2,4,15.3c0.9,3.8,1.4,7.7,1.5,11.6c0,0.9,0,1.8-0.1,2.6
	c0,1.8-0.4,3.5-1.3,5c-1.1,1.5-2.9,2.3-4.6,3.2c-5.3-4.2-9.3-9.9-11.5-16.3c0,0-0.3,0.3-0.7,1v-1c0,0-10-14.7-11.5-26.7l3.5,0.4
	l8-112.6l-20.4-3c-0.6-5.8-2.1-14.2-6.2-20.4C434.2,10,436,0.9,420.9,0c-17.6-1.1-16.5,12.6-14.6,20.1c-0.8,4.1-1.2,8.3-1,12.4
	l-18-2.6l-0.1,1.5h-4.3l-13.1,114.8l11.2-0.6l40.9,4.3c3.3,29.7,8.4,66.5,14.5,75.1c0.2,0.3,0.4,0.6,0.7,0.8v52.6
	c0,0-0.7,68-13.2,78.9c7.6-2.7,15.7-4,23.8-3.7c-0.1,0.5-0.3,0.9-0.4,1.4c-1.8,6.7-3.1,13.6-3.8,20.5c-0.2,1.5-0.3,3.1-0.5,4.8
	c-1.1,15.2-0.9,30.5,0.6,45.7c5.1,54.1,13.2,92.8,13.2,92.8l2.2,31.4c0,0-2.2,53.3,3.7,70.9c2.2,2,4.7,3.7,7.5,4.8
	c0,0.5,0.1,1,0.2,1.5s0.1,1.3,0.2,2c-2.6,1.2-7.5,5.9-8.6,24.5c0,0,1.5,13.9-2.2,20.5s-1.5,25.6,9.5,27.8c7,1.3,14.2,1.3,21.2,0
	c0,0,5.1,0,1.5-18.3l-0.6-4.7c-0.1-9,0.3-18.7,2.1-21.6c3.7-5.8-1.5-11.7-1.5-11.7s-0.4,0.2-1,0.5c-0.9-5-2.2-13.2-1.7-19.5
	c0-0.5,0.1-1,0.2-1.5c2.2-1.2,4.3-2.6,6.2-4.3v-69.4c0,0-0.7-106.7,7.3-108.9c0,0,3.7,38.7,2.2,57.7s2.2,39.5,2.2,39.5l1.5,77.5
	c0,0,1.4,0.7,3.7,1.5l-0.2,1.4c-0.9,8.6-2.3,21.6-3.6,29.6c-1.8,0.7-3.1,2.2-3.5,4.1c-2.2,7.3-0.7,25.6-5.1,30.7
	c-2.6,3-5.7,9.1-4.2,13.4c-1,3.8-0.5,9.7,10.8,10.7c16.8,1.5,24.1-7.3,24.1-7.3s2.2-3.7,0-10.2s0.7-18.3,0.7-18.3s1.6-9.9-1-11.2
	c-0.2-1.2-0.4-1.9-0.4-1.9c0-2.2-0.8-4.4-2.3-6.1c-0.1-7.7,0.2-21.8,2.9-31.1c0.2-0.5,0.3-1,0.5-1.5c2.2-0.4,4.3-1.1,6.2-2.2
	c0,0-0.7-16.8,4.4-28.5s2.2-58.5,2.2-58.5s-2.2-12.3,0.9-22.2c3.5-11,6.2-22.3,7.9-33.8l4.3-30.2c0,0,11.3-36.8-3.6-74.5
	c-0.6-1.6-1.3-3.1-2-4.7c-1.2-2.7-2.6-5.4-4.2-8.1c-0.2-0.4-0.5-0.9-0.8-1.3c1.6-0.4,2.5-0.6,2.5-0.6s-19.7-46-7.3-69.4
	c0,0,7-7,8-14.7c1.2-10.2,2.6-20.3,4.8-30.3l0.4-1.8c0,0,0.1-0.3,0.2-1c0.3-0.2,0.5-0.4,0.8-0.6c21.1-15.4,39.2-79.6,39.2-79.6
	l5.8-11l2.8-5.9l-5.7,49.7l44.6,11l28.5-2.2l-0.1-6.1l21.7-1.7L718.9,182.2z M436.3,37.2l-7.9-1.2c-1.4-7.2-2.3-11.8-2.3-11.8
	c1.7-2.1,3.1-4.3,4.4-6.6C434.3,23.5,435.8,31.5,436.3,37.2L436.3,37.2z M406.7,21.9c0.5,1.9,1,3.1,1,3.1l1,8.2l-2.7-0.4
	C405.9,29.1,406.1,25.5,406.7,21.9L406.7,21.9z M656.5,79.5l-10.7,1.4c1.5-4.4,3.4-11.7,2.3-18.3c2.1-1.9,3.2-4.8,2.9-7.6
	C657.4,62.5,656.8,75.9,656.5,79.5L656.5,79.5z M638.7,68.1c3.2-1.1,6.2-2.7,8.7-4.9c0.9,6.5-1,13.6-2.5,17.8l-10,1.3l-2.8-0.5
	L638.7,68.1z"/>
<polygon class="st2" points="717,184.1 690.9,195 660.6,89.3 667.7,80.9 680.7,78.8 "/>
<polygon class="st3" points="717,184.1 690.9,195 660.6,89.3 667.7,80.9 680.7,78.8 "/>
<polygon class="st2" points="667.7,80.9 622.4,86.7 645.6,198.5 690.9,195 "/>
<polygon class="st4" points="667.7,80.9 622.4,86.7 645.6,198.5 690.9,195 "/>
<path class="st5" d="M655.9,83.4l-0.7-0.1c0-0.3,3-26.7-13.6-30l0.1-0.7C659.1,56,656,83.1,655.9,83.4z"/>
<rect x="488.4" y="160.4" class="st6" width="49.9" height="73"/>
<rect x="488.4" y="160.4" class="st7" width="49.9" height="73"/>
<polygon class="st2" points="669.5,202.7 641.3,204.9 645.7,95 655,89.2 668.1,91.4 "/>
<polygon class="st7" points="669.5,202.7 641.3,204.9 645.7,95 655,89.2 668.1,91.4 "/>
<polygon class="st2" points="655,89.2 610.2,80.6 597.2,194 641.3,204.9 "/>
<polygon class="st2" points="391.2,35 384.7,35 371.7,148.5 400.6,147.1 "/>
<polygon class="st7" points="391.2,35 384.7,35 371.7,148.5 400.6,147.1 "/>
<polygon class="st2" points="389,33.6 381.1,147.8 450.5,155 458.4,43.7 "/>
<path class="st8" d="M472.9,626.3c0,0-8.7-0.7-10.1,24.6c0,0,1.5,13.7-2.2,20.2s-1.5,25.3,9.4,27.5c6.9,1.3,14.1,1.3,21,0
	c0,0,5.1,0,1.5-18.1l-7.2-52.8L472.9,626.3z"/>
<path class="st9" d="M472.9,626.3c0,0-8.7-0.7-10.1,24.6c0,0,1.5,13.7-2.2,20.2s-1.5,25.3,9.4,27.5c6.9,1.3,14.1,1.3,21,0
	c0,0,5.1,0,1.5-18.1l-7.2-52.8L472.9,626.3z"/>
<path class="st10" d="M518.3,208.9c-0.6,10.8,1.5,17,1.5,17l-18.8,5.1c0,0-31.1,4.3-18.8-8c4.2-4.2,6.3-11.5,7.2-19.2
	c0.6-5.3,0.7-10.6,0.5-15.8c-0.2-5-0.6-9.9-1.3-14.8c0,0,45.5-15.9,35.4,10.1c-1.8,4.7-3.3,9.6-4.3,14.5
	C519.1,201.4,518.6,205.1,518.3,208.9z"/>
<path class="st11" d="M524.2,183.2c-1.8,4.7-3.3,9.6-4.3,14.5c-11,2.3-22.4-1.4-29.8-9.8c-0.2-5-0.6-9.9-1.3-14.8
	C488.8,173.1,534.3,157.2,524.2,183.2z"/>
<ellipse transform="matrix(0.3827 -0.9239 0.9239 0.3827 163.6833 576.6894)" class="st10" cx="513.4" cy="165.9" rx="31.1" ry="31.1"/>
<path class="st10" d="M458.4,181v9.4l-15.9,41.2l-4.3-4.3c-0.2-0.3-0.5-0.5-0.7-0.8c-10.5-14.9-18.1-114.1-18.1-114.1l-10.1-83.9
	c0,0-10.8-26,13-24.6s5.1,23.8,5.1,23.8s15.9,79.5,13.7,82.4s0,11.6,0,11.6s6.5,16.6,5.8,28.9S458.4,181,458.4,181z"/>
<path class="st10" d="M637.7,71.2l-37.6,79.5l-5.8,10.8c0,0-18,63.5-38.8,78.7c-1.2,0.9-2.5,1.6-3.9,2.2l-4.3-34.7l4-10.1l0.3-0.8
	c4.6-4.5,8.3-9.9,10.8-15.9c4.3-10.1,16.6-30.4,16.6-30.4s2.2-5.8,2.2-10.1s41.2-75.9,41.2-75.9s3.6-32.5,21-16.6
	S637.7,71.2,637.7,71.2z"/>
<path class="st10" d="M492.4,648c0,0-24.6,10.1-21.7,0.7c1.8-5.7,1.1-16.5,0.3-24c-0.5-4.9-1.1-8.5-1.1-8.5l21,2.2
	c-0.7,1.8-1.1,3.8-1.2,5.8C489.1,633.7,492.4,648,492.4,648z"/>
<path class="st10" d="M530.6,619.9c-3.8,13.2-2.8,36.1-2.8,36.1s-22.4,2.9-20.2-2.9c1.5-4,3.7-23.8,4.9-35.5
	c0.5-5.1,0.9-8.6,0.9-8.6l20.2,4.3C532.2,615.3,531.2,617.5,530.6,619.9z"/>
<path class="st11" d="M470,616.2l21,2.2c-0.7,1.8-1.1,3.8-1.2,5.8c-5.8,3-12.7,3.3-18.7,0.6C470.6,619.8,470,616.2,470,616.2z"/>
<path class="st11" d="M533.6,613.3c-1.4,2-2.4,4.2-3,6.6c-6.8,1.1-14-0.8-18.1-2.3c0.5-5.1,0.9-8.6,0.9-8.6L533.6,613.3z"/>
<path class="st12" d="M556.8,444.9l-4.3,29.9c-1.7,11.3-4.4,22.5-7.9,33.4c-3.1,9.8-0.9,22-0.9,22s2.9,46.3-2.2,57.8
	s-4.3,28.2-4.3,28.2c-11.6,6.5-28.2-1.5-28.2-1.5l-1.5-76.6c0,0-3.6-20.2-2.2-39s-2.2-57.1-2.2-57.1c-8,2.2-7.2,107.7-7.2,107.7
	v68.7c-17.3,15.2-32.5,0-32.5,0c-5.8-17.3-3.6-70.1-3.6-70.1l-2.2-31.1c0,0-8-38.3-13-91.8c-1.5-15-1.8-30.2-0.6-45.2
	c0.1-1.6,0.3-3.2,0.5-4.7c0.7-6.8,1.9-13.6,3.7-20.2c0.6-2.2,1.3-4.3,2.2-6.4l77.7,3.6l4.6,0.2l11,0.5c1.2,1.8,2.3,3.6,3.4,5.5
	c1.5,2.7,2.9,5.4,4.1,8c0.7,1.5,1.4,3.1,2,4.6C568,408.5,556.8,444.9,556.8,444.9z"/>
<path class="st11" d="M471.5,356c0,0-3.4,34-27.4,24.2c0.1-1.6,0.3-3.2,0.5-4.7c5.6,1.5,21.3,3.6,21.8-19.4L471.5,356z"/>
<path class="st11" d="M553.2,371.2c-16.6,5.9-22.9-9.9-25-18.9l4.6,0.2c2.5,14.2,12.4,15,18.5,14
	C551.9,368.1,552.6,369.7,553.2,371.2z"/>
<path class="st8" d="M479.3,644.2c-3.7-0.6-9.3-2.6-7.6-9.7c0,0-6.8-2.4-6.1,25.8c0,0-0.7,13.7-2.2,16.6s0,20.2,15.2,18.8
	c0,0,10.8,3.6,13.7-2.2c0,0-2.2-33.2,1.5-39s-1.5-11.6-1.5-11.6s-5.1,2.8-8.8,2C482.2,644.6,480.8,644.4,479.3,644.2z"/>
<path class="st8" d="M497.5,691.4c0,0-7.2,12.3,9.4,13.7s23.8-7.2,23.8-7.2s2.2-3.6,0-10.1s0.7-18.1,0.7-18.1s2.2-13.7-2.9-10.8
	S497.5,691.4,497.5,691.4z"/>
<path class="st9" d="M497.5,691.4c0,0-7.2,12.3,9.4,13.7s23.8-7.2,23.8-7.2s2.2-3.6,0-10.1s0.7-18.1,0.7-18.1s2.2-13.7-2.9-10.8
	S497.5,691.4,497.5,691.4z"/>
<path class="st8" d="M516.3,647.3c0,0-8.7-3.6-10.8,3.6s-0.7,25.3-5.1,30.4s-10.1,18.8,7.2,18.1s21-6.5,21-6.5s-0.7-18.1,1.5-23.1
	s0-13,0-13S530.7,646.5,516.3,647.3z"/>
<circle class="st7" cx="407.8" cy="43.7" r="1.5"/>
<circle class="st7" cx="438.2" cy="47.3" r="1.5"/>
<path class="st5" d="M438.6,47.3h-0.7c0-0.3,0.5-30.8-17-33.6c-3.5-0.6-6.3,0.2-8.4,2.3c-7.2,7.2-4.2,27.4-4.2,27.6l-0.7,0.1
	c-0.1-0.8-3.1-20.8,4.4-28.2c2.3-2.3,5.3-3.1,9-2.5C439.1,15.9,438.6,47,438.6,47.3z"/>
<path class="st5" d="M643.1,87.9l-0.7-0.3c0.1-0.2,11.2-24.4-3.5-32.8l0.4-0.6C654.6,63,643.2,87.7,643.1,87.9z"/>
<path class="st11" d="M519.9,225.9l-18.8,5.1c0,0-31.1,4.3-18.8-8c4.2-4.2,6.3-11.5,7.2-19.2c4.9,7.7,10.8,5.5,10.8,5.5l17.9-0.4
	h0.1C517.7,219.7,519.9,225.9,519.9,225.9z"/>
<path class="st11" d="M555.5,240.2c-1.2,0.9-2.5,1.6-3.9,2.2l-4.3-34.7l4-10.1l1-0.8C561.4,199.5,556.7,232.7,555.5,240.2z"/>
<path class="st11" d="M458.4,181v9.4l-15.9,41.2l-4.3-4.3c-0.2-0.3-0.5-0.5-0.7-0.8C439.4,205,458.4,181,458.4,181z"/>
<path class="st11" d="M547.1,358.6c-10.1,2.5-62.9,14.9-78.5,3.2c-6.2-4.6-13.5-6.3-20.3-6.6c0.6-2.2,1.3-4.3,2.2-6.4l77.7,3.6
	l4.6,0.2l11,0.5C544.9,354.9,546.1,356.7,547.1,358.6z"/>
<path class="st10" d="M411.1,10.1c0,0,10.8,18.1,18.1,0"/>
<path class="st10" d="M634.1,47.3c0,0-4.3,21.7,13,11.6"/>
<g class="st13">
	<path d="M499.9,449.1c-0.3-4.4-0.6-7.2-0.6-7.2c-8,2.2-7.2,107.7-7.2,107.7v68.7c-5.1,4.4-10,6.3-14.3,6.7c5.2,0.5,11.4-1,18-6.7
		v-68.7C495.7,549.7,495.1,473.2,499.9,449.1z"/>
	<path d="M552.8,371.2c-0.6-1.5-1.3-3.1-2-4.6c-1.2-2.7-2.6-5.4-4.1-8c-1-1.8-2.2-3.7-3.4-5.5l-11-0.5l-4.6-0.2l-77.7-3.6l-0.1,0.2
		l74.1,3.5l4.6,0.2l11,0.5c1.2,1.8,2.3,3.6,3.4,5.5c1.5,2.7,2.9,5.4,4.1,8c0.7,1.5,1.4,3.1,2,4.6c14.8,37.3,3.6,73.7,3.6,73.7
		l-4.3,29.9c-1.7,11.3-4.4,22.5-7.9,33.4c-3.1,9.8-0.9,22-0.9,22s2.9,46.3-2.2,57.8s-4.3,28.2-4.3,28.2c-2.8,1.5-5.9,2.4-9.1,2.5
		c4.4,0.4,8.8-0.5,12.7-2.5c0,0-0.7-16.6,4.3-28.2s2.2-57.8,2.2-57.8s-2.2-12.2,0.9-22c3.5-10.9,6.1-22.1,7.9-33.4l4.3-29.9
		C556.4,444.9,567.6,408.5,552.8,371.2z"/>
</g>
<path class="st14" d="M518.3,210.3c10,4.7,33.4-13.4,33.4-13.4c10.1,2.9,2.9,44.8,2.9,44.8l-0.4,1.7c-2.2,9.9-3.5,19.9-4.8,30
	c-0.9,7.6-7.9,14.5-7.9,14.5c-12.3,23.1,7.2,68.7,7.2,68.7s-62.9,16.6-80.2,3.6s-43.4-2.9-43.4-2.9c12.3-10.8,13-78.1,13-78.1v-52
	c1.5-21.7,21-46.3,21-46.3c8,22.4,30.2,23.9,30.2,23.9c4.9,8,11,5.8,11,5.8L518.3,210.3z"/>
<path class="st11" d="M505.3,122.1c-2.5-0.5-5-0.5-7.5,0c-7.9,2.2-10.3,12.1-16.4,17.5c-2.2,2-4.9,3.3-6.8,5.5
	c-3.5,3.9-4.2,9.6-3.5,14.8s2.8,10.1,4,15.1c1.2,5.1,1.7,10.3,1.4,15.5c0,1.7-0.4,3.4-1.3,4.9c-1.5,2-4.1,2.6-6,4.2
	c-5.7,4.9-1,15.2-5.2,21.5c-1.8,2.7-5.2,4.5-5.9,7.7c-0.5,2.3,0.5,4.6,1.6,6.6c2.7,5.5,5.5,11.1,10,15.2s10.2,6.2,15.7,8.3
	c1.7,0.6,3.8,1.2,5.1-0.1c1.6-1.6,0.4-4.2-0.7-6.1c-1.7-3-3.1-6.6-2.1-10s4.3-5.6,6.5-8.4c5.7-7.3,3.8-17.8,1-26.6
	c-1.2-3.7-2.5-7.7-1.5-11.4c0.4-1.6,1.3-3.1,1.8-4.7c2.4-7.1-1.6-14.9-0.5-22.2c0.6-2.9,1.6-5.7,3-8.3l6.3-13.6
	c0.6-1.6,1.6-3.1,2.8-4.4c2-1.6,4.5-2.4,7-2.2c5.2,0.1,10.1,2.4,13.6,6.2c6.8,7.6,6.4,19,5.5,29.1l-0.6,7.3
	c-0.4,5.2-1,10.8-4.3,14.9c-2.6,3.2-6.7,5.3-7.8,9.2c-0.9,3.4,0.8,7.1-0.1,10.5c-1.4,5.1-7.6,6.9-10.9,11c-2.8,3.6-3.2,8.7-0.8,12.6
	c1.3,2,3.3,4,3,6.4c-0.2,1.9-1.9,3.4-1.9,5.3c0.2,1.7,1.4,3.2,3.1,3.7c1.7,0.4,3.4,0.5,5.1,0.2l17.9-1.6c1.1,0,2.2-0.3,3.2-0.9
	c1.2-0.9,1.7-2.6,1.8-4.1c0.7-6.4-1-13.4,2.2-18.9c1-1.8,2.5-3.3,3.6-5c6.1-9.6,0-22.6,3.3-33.5c1.6-5.2,5.3-9.6,6.2-14.9
	c1.3-7.1-2.4-14-3.8-21c-1.5-7.2-0.7-15.2-4.5-21.5c-3-4.8-8.2-7.8-13.7-9.2c-5-1.3-10-0.8-15-1.4
	C514.4,124.9,509.9,122.8,505.3,122.1z"/>
<path class="st6" d="M505.3,120.6c-2.5-0.5-5-0.5-7.5,0c-7.9,2.2-10.3,12.1-16.4,17.5c-2.2,2-4.9,3.3-6.8,5.5
	c-3.5,3.9-4.2,9.6-3.5,14.8s2.8,10.1,4,15.1c1.2,5.1,1.7,10.3,1.4,15.5c0,1.7-0.4,3.4-1.3,4.9c-1.5,2-4.1,2.6-6,4.2
	c-5.7,4.9-1,15.2-5.2,21.5c-1.8,2.7-5.2,4.5-5.9,7.7c-0.5,2.3,0.5,4.6,1.6,6.6c2.7,5.5,5.5,11.1,10,15.2s10.2,6.2,15.7,8.3
	c1.7,0.6,3.8,1.2,5.1-0.1c1.6-1.6,0.4-4.2-0.7-6.1c-1.7-3-3.1-6.6-2.1-10s4.3-5.6,6.5-8.4c5.7-7.3,3.8-17.8,1-26.6
	c-1.2-3.7-2.5-7.7-1.5-11.4c0.4-1.6,1.3-3.1,1.8-4.7c2.4-7.1-1.6-14.9-0.5-22.2c0.6-2.9,1.6-5.7,3-8.3l6.3-13.6
	c0.6-1.6,1.6-3.1,2.8-4.4c2-1.6,4.5-2.4,7-2.2c5.2,0.1,10.1,2.4,13.6,6.2c6.8,7.6,6.4,19,5.5,29.1l-0.6,7.3
	c-0.4,5.2-1,10.8-4.3,14.9c-2.6,3.2-6.7,5.3-7.8,9.2c-0.9,3.4,0.8,7.1-0.1,10.5c-1.4,5.1-7.6,6.9-10.9,11c-2.8,3.6-3.2,8.7-0.8,12.6
	c1.3,2,3.3,4,3,6.4c-0.2,1.9-1.9,3.4-1.9,5.3c0.2,1.7,1.4,3.2,3.1,3.7c1.7,0.4,3.4,0.5,5.1,0.2l17.9-1.6c1.1,0,2.2-0.3,3.2-0.9
	c1.2-0.9,1.7-2.6,1.8-4.1c0.7-6.4-1-13.4,2.2-18.9c1-1.8,2.5-3.3,3.6-5c6.1-9.6,0-22.6,3.3-33.5c1.6-5.2,5.3-9.6,6.2-14.9
	c1.3-7.1-2.4-14-3.8-21c-1.5-7.2-0.7-15.2-4.5-21.5c-3-4.8-8.2-7.8-13.7-9.2c-5-1.3-10-0.8-15-1.4
	C514.4,123.4,509.9,121.4,505.3,120.6z"/>
<path class="st11" d="M466.8,286.2c0,0,14.5,4.3,35.4-5.1H513c0,0,0.7,10.1,28.9,5.8"/>
<ellipse class="st0" cx="537" cy="690" rx="537" ry="49"/>
<path class="st0" d="M257.2,258h69.7c2.9,0,5.2,2.3,5.2,5.2v19.7c0,2.9-2.3,5.2-5.2,5.2h-69.7c-2.9,0-5.2-2.3-5.2-5.2v-19.7
	C252,260.3,254.3,258,257.2,258z"/>
<path class="st0" d="M293.2,291h69.7c2.9,0,5.2,2.3,5.2,5.2v19.7c0,2.9-2.3,5.2-5.2,5.2h-69.7c-2.9,0-5.2-2.3-5.2-5.2v-19.7
	C288,293.3,290.3,291,293.2,291z"/>
<path class="st0" d="M608.2,260h69.7c2.9,0,5.2,2.3,5.2,5.2v19.7c0,2.9-2.3,5.2-5.2,5.2h-69.7c-2.9,0-5.2-2.3-5.2-5.2v-19.7
	C603,262.3,605.3,260,608.2,260z"/>
<path class="st0" d="M644.2,293h69.7c2.9,0,5.2,2.3,5.2,5.2v19.7c0,2.9-2.3,5.2-5.2,5.2h-69.7c-2.9,0-5.2-2.3-5.2-5.2v-19.7
	C639,295.3,641.3,293,644.2,293z"/>
<path class="st0" d="M232.2,324h69.7c2.9,0,5.2,2.3,5.2,5.2v19.7c0,2.9-2.3,5.2-5.2,5.2h-69.7c-2.9,0-5.2-2.3-5.2-5.2v-19.7
	C227,326.3,229.3,324,232.2,324z"/>
<path class="st0" d="M312.2,441h69.7c2.9,0,5.2,2.3,5.2,5.2v19.7c0,2.9-2.3,5.2-5.2,5.2h-69.7c-2.9,0-5.2-2.3-5.2-5.2v-19.7
	C307,443.3,309.3,441,312.2,441z"/>
<path class="st0" d="M348.2,474h69.7c2.9,0,5.2,2.3,5.2,5.2v19.7c0,2.9-2.3,5.2-5.2,5.2h-69.7c-2.9,0-5.2-2.3-5.2-5.2v-19.7
	C343,476.3,345.3,474,348.2,474z"/>
<path class="st0" d="M287.2,507h69.7c2.9,0,5.2,2.3,5.2,5.2v19.7c0,2.9-2.3,5.2-5.2,5.2h-69.7c-2.9,0-5.2-2.3-5.2-5.2v-19.7
	C282,509.3,284.3,507,287.2,507z"/>
<path class="st0" d="M634.2,525h69.7c2.9,0,5.2,2.3,5.2,5.2v19.7c0,2.9-2.3,5.2-5.2,5.2h-69.7c-2.9,0-5.2-2.3-5.2-5.2v-19.7
	C629,527.3,631.3,525,634.2,525z"/>
<path class="st0" d="M573.2,558h69.7c2.9,0,5.2,2.3,5.2,5.2v19.7c0,2.9-2.3,5.2-5.2,5.2h-69.7c-2.9,0-5.2-2.3-5.2-5.2v-19.7
	C568,560.3,570.3,558,573.2,558z"/>
<g class="st13">
	<path class="st15" d="M945.3,663.4c0,0-14.5-73.4,15.3-123.6c12.6-21,18.1-45.5,15.6-69.9c-1.3-11.6-3.6-23-7-34.1"/>
	<path class="st2" d="M987.8,403.9c-0.8,8.8-19,32.7-19,32.7s-13.5-26.8-12.7-35.6c1-8.7,8.9-15,17.6-14
		C982.2,387.9,988.4,395.3,987.8,403.9L987.8,403.9z"/>
	<path class="st2" d="M1009.6,454.8c-5.4,6.9-33.7,17.1-33.7,17.1s3.2-29.9,8.7-36.8c5.1-7.1,15.1-8.8,22.2-3.6
		c7.1,5.1,8.8,15.1,3.6,22.2C1010.2,454.1,1009.9,454.4,1009.6,454.8L1009.6,454.8z"/>
	<path class="st2" d="M1000.8,537.5c-8.2,3.2-37.7-2.2-37.7-2.2s17.9-24.2,26.1-27.4c8.2-3.1,17.4,1.1,20.5,9.3
		C1012.7,525.2,1008.8,534.2,1000.8,537.5z"/>
	<path class="st2" d="M980.1,598.7c-7.5,4.6-37.6,4.2-37.6,4.2s13.5-26.8,21.1-31.4c7.4-4.7,17.3-2.4,22,5s2.4,17.3-5,22
		C980.4,598.5,980.3,598.6,980.1,598.7L980.1,598.7z"/>
	<path class="st2" d="M942.5,470.5c5.7,6.7,34.4,15.7,34.4,15.7s-4.5-29.7-10.2-36.4c-5.6-6.8-15.7-7.7-22.4-2.1
		c-6.8,5.6-7.7,15.7-2.1,22.4C942.3,470.3,942.4,470.4,942.5,470.5z"/>
	<path class="st2" d="M919.1,542.3c7.5,4.7,37.5,4.7,37.5,4.7s-13.2-27-20.6-31.7c-7.4-4.8-17.2-2.6-22,4.8
		c-4.8,7.4-2.6,17.2,4.8,22C918.9,542.2,919,542.2,919.1,542.3z"/>
	<path class="st2" d="M906,615.2c6.6,5.8,36.2,11,36.2,11s-8.4-28.8-15-34.7c-6.4-6.1-16.4-5.8-22.5,0.5s-5.8,16.4,0.5,22.5
		C905.5,614.7,905.7,615,906,615.2z"/>
</g>
<g class="st13">
	<path class="st15" d="M819.6,647.3c0,0-7.8-39.4,8.2-66.4c6.8-11.3,9.7-24.5,8.4-37.6c-0.7-6.2-1.9-12.3-3.7-18.3"/>
	<path class="st2" d="M842.5,507.9c-0.4,4.7-10.2,17.5-10.2,17.5s-7.3-14.4-6.8-19.1c0.7-4.7,5.1-7.9,9.7-7.2
		C839.5,499.8,842.6,503.6,842.5,507.9L842.5,507.9z"/>
	<path class="st2" d="M854.2,535.3c-2.9,3.7-18.1,9.2-18.1,9.2s1.7-16,4.7-19.8c3-3.6,8.4-4.1,12-1.1
		C856.2,526.5,856.9,531.6,854.2,535.3z"/>
	<path class="st2" d="M849.5,579.7c-4.4,1.7-20.3-1.2-20.3-1.2s9.6-13,14-14.7c4.4-1.6,9.3,0.7,10.9,5.2
		C855.7,573.2,853.6,577.9,849.5,579.7L849.5,579.7z"/>
	<path class="st2" d="M838.3,612.5c-4,2.5-20.2,2.2-20.2,2.2s7.3-14.4,11.3-16.9c4-2.5,9.3-1.4,11.8,2.6s1.4,9.3-2.6,11.8
		C838.6,612.4,838.5,612.4,838.3,612.5z"/>
	<path class="st2" d="M818.1,543.7c3.1,3.6,18.5,8.4,18.5,8.4s-2.4-16-5.5-19.5c-3.1-3.6-8.5-4-12.1-0.9S815,540.1,818.1,543.7
		L818.1,543.7L818.1,543.7z"/>
	<path class="st2" d="M805.6,582.3c4,2.5,20.1,2.5,20.1,2.5s-7.1-14.5-11.1-17c-4-2.4-9.3-1.1-11.7,2.9
		C800.5,574.6,801.7,579.8,805.6,582.3L805.6,582.3z"/>
	<path class="st2" d="M798.6,621.4c3.5,3.1,19.4,5.9,19.4,5.9s-4.5-15.5-8-18.6c-3.6-3.1-9-2.7-12.1,0.9
		C794.9,613,795.2,618.3,798.6,621.4L798.6,621.4z"/>
</g>
<g class="st13">
	<path class="st15" d="M186.6,653.3c0,0-7.8-39.4,8.2-66.4c6.8-11.3,9.7-24.5,8.4-37.6c-0.7-6.2-1.9-12.3-3.7-18.3"/>
	<path class="st2" d="M209.5,513.9c-0.4,4.7-10.2,17.5-10.2,17.5s-7.3-14.4-6.8-19.1c0.7-4.7,5.1-7.9,9.7-7.2
		C206.5,505.8,209.6,509.6,209.5,513.9L209.5,513.9z"/>
	<path class="st2" d="M221.2,541.3c-2.9,3.7-18.1,9.2-18.1,9.2s1.7-16,4.7-19.8c3-3.6,8.4-4.1,12-1.1
		C223.2,532.5,223.9,537.6,221.2,541.3z"/>
	<path class="st2" d="M216.5,585.7c-4.4,1.7-20.3-1.2-20.3-1.2s9.6-13,14-14.7c4.4-1.6,9.3,0.7,10.9,5.2
		C222.7,579.2,220.6,583.9,216.5,585.7L216.5,585.7z"/>
	<path class="st2" d="M205.3,618.5c-4,2.5-20.2,2.2-20.2,2.2s7.3-14.4,11.3-16.9c4-2.5,9.3-1.4,11.8,2.6c2.5,4,1.4,9.3-2.6,11.8
		C205.6,618.4,205.5,618.4,205.3,618.5z"/>
	<path class="st2" d="M185.1,549.7c3.1,3.6,18.5,8.4,18.5,8.4s-2.4-16-5.5-19.5c-3.1-3.6-8.5-4-12.1-0.9S182,546.1,185.1,549.7
		L185.1,549.7z"/>
	<path class="st2" d="M172.6,588.3c4,2.5,20.1,2.5,20.1,2.5s-7.1-14.5-11.1-17c-4-2.4-9.3-1.1-11.7,2.9
		C167.5,580.6,168.7,585.8,172.6,588.3L172.6,588.3z"/>
	<path class="st2" d="M165.6,627.4c3.5,3.1,19.4,5.9,19.4,5.9s-4.5-15.5-8-18.6c-3.6-3.1-9-2.7-12.1,0.9
		C161.9,619,162.2,624.3,165.6,627.4L165.6,627.4z"/>
</g>
</svg>
